<?xml version="1.0" encoding="UTF-8"?>
<!DOCTYPE svg PUBLIC "-//W3C//DTD SVG 1.1//EN" "http://www.w3.org/Graphics/SVG/1.1/DTD/svg11.dtd">
<svg xmlns="http://www.w3.org/2000/svg" version="1.1" width="512px" height="512px" style="shape-rendering:geometricPrecision; text-rendering:geometricPrecision; image-rendering:optimizeQuality; fill-rule:evenodd; clip-rule:evenodd" xmlns:xlink="http://www.w3.org/1999/xlink">
<g><path style="opacity:0.983" fill="#000000" d="M 85.5,-0.5 C 121.5,-0.5 157.5,-0.5 193.5,-0.5C 241.154,8.98726 269.654,37.6539 279,85.5C 279.667,134.833 279.667,184.167 279,233.5C 269.833,281.333 241.333,309.833 193.5,319C 175.5,319.167 157.5,319.333 139.5,319.5C 119.465,319.63 99.4646,319.13 79.5,318C 34.785,306.788 8.11838,278.621 -0.5,233.5C -0.5,184.167 -0.5,134.833 -0.5,85.5C 9.16667,37.8333 37.8333,9.16667 85.5,-0.5 Z M 98.5,39.5 C 125.835,39.3334 153.169,39.5 180.5,40C 209.225,42.2786 228.058,57.112 237,84.5C 237.995,89.4535 238.662,94.4535 239,99.5C 239.944,142.855 239.611,186.188 238,229.5C 230.554,259.612 211.388,276.112 180.5,279C 149.81,279.918 119.143,279.585 88.5,278C 58.469,269.971 42.3024,250.471 40,219.5C 39.3333,179.5 39.3333,139.5 40,99.5C 41.4553,73.0539 54.2887,54.5539 78.5,44C 85.0951,41.5245 91.7617,40.0245 98.5,39.5 Z"/></g>
<g><path style="opacity:0.976" fill="#000000" d="M 368.5,-0.5 C 373.167,-0.5 377.833,-0.5 382.5,-0.5C 393.619,5.07991 397.786,14.0799 395,26.5C 392.926,31.4749 389.759,35.6416 385.5,39C 399.167,39.3333 412.833,39.6667 426.5,40C 452.667,46.1667 468.833,62.3333 475,88.5C 475.667,107.833 475.667,127.167 475,146.5C 468.318,159.704 458.151,163.204 444.5,157C 440.61,154.404 437.777,150.904 436,146.5C 435.667,130.833 435.333,115.167 435,99.5C 433.833,87.6667 427.333,81.1667 415.5,80C 405.5,79.3333 395.5,79.3333 385.5,80C 396.629,89.6524 398.462,100.819 391,113.5C 384.555,119.202 377.055,121.036 368.5,119C 366.004,117.92 363.67,116.586 361.5,115C 346.637,100.471 332.137,85.638 318,70.5C 314.171,61.7708 314.838,53.4374 320,45.5C 333.833,31.6667 347.667,17.8333 361.5,4C 363.898,2.47576 366.231,0.97576 368.5,-0.5 Z"/></g>
<g><path style="opacity:0.976" fill="#000000" d="M 132.5,79.5 C 144.82,77.0772 153.653,81.4105 159,92.5C 159.5,101.494 159.666,110.494 159.5,119.5C 168.506,119.334 177.506,119.5 186.5,120C 199.704,126.682 203.204,136.849 197,150.5C 194.404,154.39 190.904,157.223 186.5,159C 177.84,159.5 169.173,159.666 160.5,159.5C 163.29,180.452 174.29,195.286 193.5,204C 199.202,210.445 201.036,217.945 199,226.5C 193.657,237.752 184.824,241.919 172.5,239C 159.62,232.956 148.62,224.456 139.5,213.5C 130.38,224.456 119.38,232.956 106.5,239C 86.3333,241.5 77.5,232.667 80,212.5C 81.4394,209.397 83.2728,206.564 85.5,204C 104.71,195.286 115.71,180.452 118.5,159.5C 109.827,159.666 101.16,159.5 92.5,159C 79.2961,152.318 75.7961,142.151 82,128.5C 84.5962,124.61 88.0962,121.777 92.5,120C 101.494,119.5 110.494,119.334 119.5,119.5C 119.334,110.494 119.5,101.494 120,92.5C 122.353,86.3154 126.52,81.982 132.5,79.5 Z"/></g>
<g><path style="opacity:0.983" fill="#000000" d="M 511.5,277.5 C 511.5,326.833 511.5,376.167 511.5,425.5C 501.833,473.167 473.167,501.833 425.5,511.5C 389.5,511.5 353.5,511.5 317.5,511.5C 269.846,502.013 241.346,473.346 232,425.5C 231.333,398.167 231.333,370.833 232,343.5C 237.457,331.357 246.624,327.19 259.5,331C 265.088,333.586 268.921,337.753 271,343.5C 271.108,369.855 271.775,396.188 273,422.5C 280.893,452.061 300.06,468.228 330.5,471C 361.19,471.918 391.857,471.585 422.5,470C 452.525,461.976 468.692,442.476 471,411.5C 471.667,371.5 471.667,331.5 471,291.5C 468.692,260.524 452.525,241.024 422.5,233C 389.856,231.743 357.189,231.076 324.5,231C 313.248,225.657 309.081,216.824 312,204.5C 314.167,198.333 318.333,194.167 324.5,192C 358.167,191.333 391.833,191.333 425.5,192C 473.346,201.346 502.013,229.846 511.5,277.5 Z"/></g>
<g><path style="opacity:0.986" fill="#000000" d="M 360.5,271.5 C 397.634,268.497 421.134,284.83 431,320.5C 431.667,353.167 431.667,385.833 431,418.5C 425.657,429.752 416.824,433.919 404.5,431C 398.333,428.833 394.167,424.667 392,418.5C 391.5,409.506 391.334,400.506 391.5,391.5C 378.167,391.5 364.833,391.5 351.5,391.5C 351.666,400.506 351.5,409.506 351,418.5C 345.657,429.752 336.824,433.919 324.5,431C 318.333,428.833 314.167,424.667 312,418.5C 311.333,385.833 311.333,353.167 312,320.5C 318.344,294.323 334.511,277.99 360.5,271.5 Z M 365.5,312.5 C 380.351,310.494 388.851,316.828 391,331.5C 391.5,338.158 391.666,344.825 391.5,351.5C 378.167,351.5 364.833,351.5 351.5,351.5C 351.203,342.781 351.703,334.114 353,325.5C 355.353,319.315 359.52,314.982 365.5,312.5 Z"/></g>
<g><path style="opacity:0.976" fill="#000000" d="M 142.5,511.5 C 137.833,511.5 133.167,511.5 128.5,511.5C 117.381,505.92 113.214,496.92 116,484.5C 118.074,479.525 121.241,475.358 125.5,472C 111.833,471.667 98.1667,471.333 84.5,471C 58.3333,464.833 42.1667,448.667 36,422.5C 35.3333,403.167 35.3333,383.833 36,364.5C 42.6822,351.296 52.8489,347.796 66.5,354C 70.3901,356.596 73.2234,360.096 75,364.5C 75.3333,380.167 75.6667,395.833 76,411.5C 77.1667,423.333 83.6667,429.833 95.5,431C 105.5,431.667 115.5,431.667 125.5,431C 114.371,421.348 112.538,410.181 120,397.5C 126.445,391.798 133.945,389.964 142.5,392C 144.996,393.08 147.33,394.414 149.5,396C 164.363,410.529 178.863,425.362 193,440.5C 196.829,449.229 196.162,457.563 191,465.5C 177.167,479.333 163.333,493.167 149.5,507C 147.102,508.524 144.769,510.024 142.5,511.5 Z"/></g>
</svg>
